<mxfile host="app.diagrams.net" modified="2023-02-27T14:57:29.898Z" agent="5.0 (Windows NT 10.0; Win64; x64) AppleWebKit/537.36 (KHTML, like Gecko) Chrome/110.0.0.0 Safari/537.36" etag="t4YclnPrJpDPZmxhAnko" version="20.8.23" type="github">
  <diagram id="C5RBs43oDa-KdzZeNtuy" name="Page-1">
    <mxGraphModel dx="993" dy="560" grid="1" gridSize="10" guides="1" tooltips="1" connect="1" arrows="1" fold="1" page="1" pageScale="1" pageWidth="827" pageHeight="1169" math="0" shadow="0">
      <root>
        <mxCell id="WIyWlLk6GJQsqaUBKTNV-0" />
        <mxCell id="WIyWlLk6GJQsqaUBKTNV-1" parent="WIyWlLk6GJQsqaUBKTNV-0" />
        <mxCell id="MRpayc_RQTl_Xd4fCq5G-2" value="" style="edgeStyle=orthogonalEdgeStyle;rounded=0;orthogonalLoop=1;jettySize=auto;html=1;" edge="1" parent="WIyWlLk6GJQsqaUBKTNV-1" source="MRpayc_RQTl_Xd4fCq5G-0" target="MRpayc_RQTl_Xd4fCq5G-1">
          <mxGeometry relative="1" as="geometry" />
        </mxCell>
        <mxCell id="MRpayc_RQTl_Xd4fCq5G-0" value="Start" style="strokeWidth=2;html=1;shape=mxgraph.flowchart.start_1;whiteSpace=wrap;" vertex="1" parent="WIyWlLk6GJQsqaUBKTNV-1">
          <mxGeometry x="360" y="120" width="100" height="60" as="geometry" />
        </mxCell>
        <mxCell id="MRpayc_RQTl_Xd4fCq5G-4" value="" style="edgeStyle=orthogonalEdgeStyle;rounded=0;orthogonalLoop=1;jettySize=auto;html=1;" edge="1" parent="WIyWlLk6GJQsqaUBKTNV-1" source="MRpayc_RQTl_Xd4fCq5G-1" target="MRpayc_RQTl_Xd4fCq5G-3">
          <mxGeometry relative="1" as="geometry" />
        </mxCell>
        <mxCell id="MRpayc_RQTl_Xd4fCq5G-1" value="&quot;Enter N&quot;&amp;nbsp;" style="rounded=1;whiteSpace=wrap;html=1;absoluteArcSize=1;arcSize=14;strokeWidth=2;" vertex="1" parent="WIyWlLk6GJQsqaUBKTNV-1">
          <mxGeometry x="360" y="210" width="100" height="100" as="geometry" />
        </mxCell>
        <mxCell id="MRpayc_RQTl_Xd4fCq5G-6" value="" style="edgeStyle=orthogonalEdgeStyle;rounded=0;orthogonalLoop=1;jettySize=auto;html=1;" edge="1" parent="WIyWlLk6GJQsqaUBKTNV-1" source="MRpayc_RQTl_Xd4fCq5G-3" target="MRpayc_RQTl_Xd4fCq5G-5">
          <mxGeometry relative="1" as="geometry" />
        </mxCell>
        <mxCell id="MRpayc_RQTl_Xd4fCq5G-3" value="&quot;Counter &amp;lt; N?&quot;" style="strokeWidth=2;html=1;shape=mxgraph.flowchart.decision;whiteSpace=wrap;" vertex="1" parent="WIyWlLk6GJQsqaUBKTNV-1">
          <mxGeometry x="360" y="340" width="100" height="100" as="geometry" />
        </mxCell>
        <mxCell id="MRpayc_RQTl_Xd4fCq5G-8" value="" style="edgeStyle=orthogonalEdgeStyle;rounded=0;orthogonalLoop=1;jettySize=auto;html=1;" edge="1" parent="WIyWlLk6GJQsqaUBKTNV-1" source="MRpayc_RQTl_Xd4fCq5G-5" target="MRpayc_RQTl_Xd4fCq5G-7">
          <mxGeometry relative="1" as="geometry" />
        </mxCell>
        <mxCell id="MRpayc_RQTl_Xd4fCq5G-5" value="&quot;Input Value&quot;" style="shape=parallelogram;html=1;strokeWidth=2;perimeter=parallelogramPerimeter;whiteSpace=wrap;rounded=1;arcSize=12;size=0.23;" vertex="1" parent="WIyWlLk6GJQsqaUBKTNV-1">
          <mxGeometry x="360" y="480" width="100" height="60" as="geometry" />
        </mxCell>
        <mxCell id="MRpayc_RQTl_Xd4fCq5G-7" value="&quot;Square Value&quot;" style="rounded=1;whiteSpace=wrap;html=1;absoluteArcSize=1;arcSize=14;strokeWidth=2;" vertex="1" parent="WIyWlLk6GJQsqaUBKTNV-1">
          <mxGeometry x="360" y="585" width="100" height="100" as="geometry" />
        </mxCell>
      </root>
    </mxGraphModel>
  </diagram>
</mxfile>
